{"title":"Primal Urge (2000) --BustyJana--","uid":6103465,"size":805195172,"categoryP":"porn","categoryS":"movies","magnet":"?xt=urn:btih:4599b56781801dca01a771c541a8ab4eca972735&amp;dn=Primal+Urge+%282000%29+--BustyJana--&amp;tr=udp%3A%2F%2Ftracker.openbittorrent.com%3A80&amp;tr=udp%3A%2F%2Fopen.demonii.com%3A1337&amp;tr=udp%3A%2F%2Ftracker.coppersurfer.tk%3A6969&amp;tr=udp%3A%2F%2Fexodus.desync.com%3A6969","seeders":0,"leechers":1,"uploader":"BustyJana","files":-1,"time":1295068709,"description":"This is my First Torrent. Be gantle with me, I'm a virgin &gt;:D\n\nStarring: Bridgette Kerkove, Alec Metro, Teanna Kai, Halli Aston, Amanda Rain,\n          Sabrina Johnson, Mark Davis, Anastasia Blue, Evan Stone\n\n    * Scene 1. Bridgette Kerkove, Alec Metro\n    * Scene 2. Teanna Kai, Halli Aston\n    * Scene 3. Amanda Rain, Sabrina Johnson, Mark Davis\n    * Scene 4. Anastasia Blue, Alec Metro\n    * Scene 5. Bridgette Kerkove, Evan Stone\n\nDESCRIPTION\nSin City Films and Michael Raven present a shocking vision of a marriage made in\nheaven and the dark evil that droveit straight to hell...\nAlec Metro stars as a scientist whose twisted experiments turn him into\na sexually obsessed madman who uses his innocent wife Bridgett Kerkove as a tool\nfor his sick fantasies form blazing three ways to anal violations, Raven`s vision\nof the primal man exposes the deep sexual primal urge in all of us.\n\n\n\nScreenshots: http://bayimg.com/eaDNJAADE\n\n\n\nGeneral\nFormat                           : AVI\nFormat/Info                      : Audio Video Interleave\nFile size                        : 768 MiB\nDuration                         : 1h 20mn\nOverall bit rate                 : 1 341 Kbps\nMovie name                       : Primal Urge (2000)\n\nVideo\nFormat                           : MPEG-4 Visual\nFormat profile                   : Simple@L3\nFormat settings, Matrix          : Default (H.263)\nCodec ID                         : XVID\nCodec ID/Hint                    : XviD\nDuration                         : 1h 20mn\nBit rate                         : 1 200 Kbps\nWidth                            : 640 pixels\nHeight                           : 480 pixels\nDisplay aspect ratio             : 4:3\nFrame rate                       : 29.970 fps\nColor space                      : YUV\nChroma subsampling               : 4:2:0\nBit depth                        : 8 bits\nScan type                        : Progressive\nBits/(Pixel*Frame)               : 0.130\nStream size                      : 687 MiB (89%)\nWriting library                  : Magic0432\n\nAudio\nID                               : 1\nFormat                           : MPEG Audio\nFormat version                   : Version 1\nFormat profile                   : Layer 3\nMode                             : Joint stereo\nMode extension                   : MS Stereo\nCodec ID                         : 55\nCodec ID/Hint                    : MP3\nDuration                         : 1h 20mn\nBit rate mode                    : Constant\nBit rate                         : 128 Kbps\nChannel(s)                       : 2 channels\nSampling rate                    : 44.1 KHz\nStream size                      : 73.3 MiB (10%)\nAlignment                        : Aligned on interleaves\nInterleave, duration             : 26 ms (0.78 video frame)\n\n\nLook at my torrents - You know you wanna.","torrent":{"xt":"urn:btih:4599b56781801dca01a771c541a8ab4eca972735","amp;dn":"Primal+Urge+%282000%29+--BustyJana--","amp;tr":["udp%3A%2F%2Ftracker.openbittorrent.com%3A80","udp%3A%2F%2Fopen.demonii.com%3A1337","udp%3A%2F%2Ftracker.coppersurfer.tk%3A6969","udp%3A%2F%2Fexodus.desync.com%3A6969"],"infoHash":"4599b56781801dca01a771c541a8ab4eca972735","infoHashBuffer":{"type":"Buffer","data":[69,153,181,103,129,128,29,202,1,167,113,197,65,168,171,78,202,151,39,53]},"announce":[],"urlList":[]}}